<svg width="2041" height="1222" xmlns="http://www.w3.org/2000/svg" overflow="hidden"><defs><clipPath id="a"><path d="M1945 1121h2041v1222H1945z"/></clipPath></defs><g clip-path="url(#a)" transform="translate(-1945 -1121)" fill-rule="evenodd"><path d="M3775.4 1537.97c70.39 0 127.51-57.75 127.51-129 0-71.24-57.04-129-127.51-129s-127.49 57.76-127.49 129c0 71.25 57.08 129 127.49 129zm-48.66-30.81a6.33 6.33 0 0 1-8.63 2.4c-.03-.01-.06-.03-.08-.04a6.494 6.494 0 0 1-2.32-8.81 6.325 6.325 0 0 1 8.6-2.42c.04.02.06.04.1.06 3.08 1.81 4.11 5.76 2.33 8.85zm48.66 17.91a6.45 6.45 0 0 1-6.53-6.38c-.03-3.56 2.82-6.48 6.38-6.52 3.57-.04 6.5 2.82 6.53 6.38v.07a6.396 6.396 0 0 1-6.32 6.49h-.06zm57.38-15.55c-3.01 1.76-6.89.74-8.66-2.27-.01-.03-.03-.06-.04-.09-1.76-3.08-.73-7 2.33-8.81 3.02-1.76 6.9-.73 8.66 2.29.01.02.03.05.04.07 1.78 3.09.74 7.04-2.33 8.84zm50.97-107c3.56-.04 6.49 2.81 6.53 6.37.06 3.56-2.8 6.49-6.37 6.53-3.56.05-6.49-2.8-6.53-6.36v-.09c0-3.53 2.86-6.4 6.4-6.41zm-17.72-53.92c3.02-1.76 6.9-.73 8.66 2.29.01.02.03.04.04.06 1.76 3.09.73 7.01-2.33 8.82-3.02 1.76-6.91.74-8.66-2.29-.02-.02-.03-.04-.04-.06a6.491 6.491 0 0 1 2.33-8.82zm-2.33 112.01a6.313 6.313 0 0 1 8.6-2.41c.04.01.06.03.1.05a6.498 6.498 0 0 1 2.33 8.82c-1.7 3.06-5.57 4.16-8.63 2.46-.03-.01-.05-.03-.07-.04a6.504 6.504 0 0 1-2.28-8.88zm-39.67-149.79c1.72-3.04 5.58-4.12 8.62-2.4.03.02.07.03.09.05a6.485 6.485 0 0 1 2.32 8.8 6.329 6.329 0 0 1-8.59 2.49c-.04-.02-.08-.04-.11-.06-3.09-1.83-4.11-5.8-2.28-8.88zm-48.68-17.91a6.45 6.45 0 0 1 6.54 6.37c.05 3.56-2.8 6.48-6.37 6.53-3.56.05-6.49-2.8-6.54-6.36v-.09c-.03-3.54 2.84-6.43 6.39-6.45h.03zm-57.37 15.56c3.02-1.76 6.9-.74 8.66 2.28.01.02.03.05.05.08 1.76 3.08.72 7-2.33 8.81-3.04 1.74-6.91.7-8.65-2.32-.03-.04-.04-.07-.06-.11-1.71-3.06-.69-6.94 2.33-8.74zm58.84 94.38l.82.41.16.09.72.56 82.28-43.27-82.95 52.97-2.62.49-.61.06c-1.91.02-3.71-.88-4.85-2.42l-54.92-39.88zm-100.83-51.9c1.72-3.04 5.58-4.11 8.63-2.39.02.02.05.03.07.04a6.5 6.5 0 0 1 2.33 8.82c-1.72 3.04-5.58 4.11-8.63 2.39-.02-.01-.05-.03-.07-.04a6.471 6.471 0 0 1-2.28-8.82zm-8.98 64.56c-3.57.05-6.5-2.8-6.54-6.37-.05-3.56 2.8-6.48 6.37-6.53 3.57-.05 6.49 2.8 6.54 6.36v.09a6.417 6.417 0 0 1-6.37 6.45zm9 51.6c-1.77-3.08-.72-7.01 2.33-8.81a6.343 6.343 0 0 1 8.66 2.27c.01.03.03.06.04.09 1.77 3.08.73 7.01-2.33 8.81a6.32 6.32 0 0 1-8.63-2.33c-.02-.02-.03-.05-.04-.07z" fill="#F2F2F2"/><path d="M2085.91 1709.97h244v99h-244z" fill="#FFF"/><path d="M2158.17 1859.48c-1.63.55-9.41 0-9.41 0 .34-3.29.28-6.61-.18-9.88-.73-6.34-1.22-9.11-.55-10.93.67-1.82.92-2.42.92-2.42s6.28 6.7 9.59 8.72c1.32.71 2.55 1.59 3.64 2.61 0 0 2.78-.18 3.5-2.25.73-2.06-.18-6.51-2.23-12.13a27.334 27.334 0 0 0-4.6-8.36l2.24-6.7s-3.87-2.63-7.55-.37a36.5 36.5 0 0 1-5.14 2.79s-7.55-2.42-12.51-.73c-4.96 1.7-8.64 9.27-8.64 9.27s-4.95-26.42-54.34-23.24c0 0 4.04 17.5 11.23 28.08 7.18 10.57 15.1 12.64 15.1 12.64h17.14a8.615 8.615 0 0 1-7 3.71c-5.13.38-9.96 1.3-10.87 2.62-.91 1.32-12.86-2.8-18.05 5.2-5.19 7.99-1.46 22.33-2.05 26.42l-.54 4.09s10.68-.56 12.51-8.18c1.82-7.62-.73-9.71 2.43-14.71s3.32-5 3.32-5 .54 7.62 3.5 10.24c2.95 2.63 4.59 3.17 3.5 7.08-1.1 3.91-1.83 7.64-1.83 7.64s9.79 6.51 11.78 8.91a40.35 40.35 0 0 0-1.21 3.72c-21.08 3.86-35.03 24.04-31.16 45.08a38.742 38.742 0 0 0 15.93 24.77h-21.44v34.23h85.46v-34.23h-20.72c17.55-12.38 21.73-36.62 9.34-54.14a38.941 38.941 0 0 0-23.63-15.58c.32-2.3.45-6.48-2.32-7.8l-11.92-9.07s5.72-4.44 7.36-8.35c.57-1.53 1.26-3.02 2.05-4.45 4.63.49 9.31.18 13.83-.93 6.82-1.84 7.73-2.25 7.73-2.25l2.59 3.54 15.8-3.91s.9 6.72.9 7.64c0 .92-2.94 3.53-2.04 6.7l.91 3.17c4.02-.58 6.92-4.14 6.64-8.19-.08-4.68-1.28-9.28-3.5-13.41 0 0-3.84-2.26-5.51-1.66zm96.66 146.49h65.08v-206h-65.08zm32.93-180.67c7.84 0 14.12 6.99 14.12 15.77s-6.28 15.76-14.12 15.76c-7.84 0-14.13-7.09-14.13-15.84 0-8.74 6.29-15.71 14.13-15.71zm-18.82 59.42h36.85v35.78h-36.85zm-89.96 121.25h65.08v-206h-65.08zm32.94-180.67c7.83 0 14.11 6.99 14.11 15.77s-6.28 15.76-14.11 15.76c-7.83 0-14.12-6.97-14.12-15.76 0-8.8 6.28-15.79 14.12-15.79zm-18.82 59.42h36.85v35.78h-36.85z" fill="#F2F2F2"/><path d="M2009.2 1363.97l13.98-94.16c6.12-2.87 12.21-5.82 18.26-8.84l81.96 46.67-1.31-93.49c8.07-5.44 16.02-11.07 23.82-16.89l-3.83-5.29c-60.57 45.17-128.4 78.26-196.17 102.48v18.02z" fill="#183F5E"/><path d="M1960.65 1277.97c19.52-7.3 39.1-15.41 58.52-24.36 1.89-10.03 3.68-20.08 5.35-30.14 2.93-.92 5.9-1.81 8.82-2.76 5.8 5.86 11.65 11.66 17.57 17.4a676.84 676.84 0 0 0 69.05-41.06c.21-3.11.45-6.21.64-9.32 4.77-2.07 9.56-4.09 14.31-6.24l-2.04-4.52a979.112 979.112 0 0 1-186.96 62.63v20.81c4.86 5.89 9.77 11.75 14.74 17.56z" fill="#E4B538"/><path d="M2935.91 2023.97h1050v64h-1050z" fill="#F2F2F2"/><path d="M3966.12 1345.04c-117.56-18.72-264.8-59.45-383.57-147.07l-3.64 5.13c7.65 5.62 15.42 11.08 23.31 16.36l-1.28 90.6 80.26-45.24c5.92 2.93 11.88 5.79 17.87 8.57l13.69 91.3 71.34-57.49c6.07 2.08 12.13 4.06 18.2 6.04l24.48 88.88 63.35-65.23c6.7 1.5 13.34 2.94 19.91 4.32l31.69 85.76 44.18-53.99v-24.95c-6.61-.94-13.21-1.94-19.79-2.99z" fill="#56004E"/><path d="M3591.9 1181.97l-1.99 4.49c4.63 2.11 9.32 4.11 13.98 6.15.19 3.08.42 6.16.64 9.23a656.788 656.788 0 0 0 67.5 40.65c5.8-5.67 11.52-11.41 17.16-17.23 2.87.95 5.75 1.82 8.62 2.74 1.62 9.94 3.37 19.88 5.23 29.83 19 8.86 38.13 16.89 57.22 24.13 8.49-10.07 16.83-20.27 25.01-30.6 2.94.64 5.9 1.22 8.84 1.79 4.04 15.05 8.35 30.08 12.9 45.09 15.68 4.99 31.14 9.51 46.37 13.56a1206.23 1206.23 0 0 0 29.65-44.62c2.97.33 5.95.59 8.94.88 7.42 19.7 15.36 39.21 23.81 58.49 11.59 2.43 22.82 4.57 33.7 6.42 11.32-19.89 22.04-39.97 32.13-60.23h4.3v-4.86a947.123 947.123 0 0 1-394.01-85.91z" fill="#E4B538"/><path d="M3124.91 1370.21l-4-8.24-4.01 8.24-.96.71-9.03 1.33 6.56 6.5.35 1.1-1.54 9.12 8.01-4.28h1.22l8.01 4.28-1.53-9.12.34-1.1 6.58-6.51-9.04-1.32-.96-.71z" fill="#183F5E"/><path d="M2811.98 2069.13c0 1.57 1.32 2.84 2.93 2.84h72.88c1.61.1 3-1.09 3.11-2.66.1-1.56-1.12-2.91-2.74-3.02h-73.25c-1.61 0-2.92 1.27-2.93 2.84zm9.76-43.14c-2.98-.06-5.95.41-8.78 1.37-2.42.92-4.96 2.57-5.05 5.76-.07 7.74 6.12 14.06 13.82 14.13h.01c2.33.01 4.62-.6 6.65-1.75 2.09 3.93 5.04 7.32 8.63 9.89-.69.8-1.08 1.82-1.09 2.88-.04 2.39 1.84 4.35 4.21 4.4h22.35c2.39-.04 4.3-2.02 4.26-4.42a4.38 4.38 0 0 0-1.09-2.81c11.87-7.89 15.57-29.37 15.57-29.37h-58.71zm0 16.91c-5.3-.07-9.57-4.41-9.57-9.74l.35-.6c.94-1.08 4.84-2.19 8.84-2.19h1.08c1 3.85 2.33 7.61 3.97 11.24a9.375 9.375 0 0 1-4.67 1.29zm61.02-40.6c-2.95.95-6.02 1.46-9.11 1.54-7.46 0-10.8-4.1-15.39-6.73a17.361 17.361 0 0 0-8.57-2.14c-6.85.08-13.51 3.44-14.28 11.82v.96c-.07 2.79.9 5.5 2.72 7.58 2.23 2.4 4.82 4.43 7.67 6-.5-2.07-.77-4.2-.81-6.33 0-3.91 1.2-6.69 3.18-8.36 1.98-1.52 4.41-2.29 6.88-2.17 3.02.09 6.01.7 8.84 1.8h.08c1.6.71 3.34 1.07 5.09 1.03a23.69 23.69 0 0 0 13.7-5z" fill="#F2F2F2"/><path d="M2887.37 1998.82c-5.73 2.11-9.82 2.89-13 2.89-6.56 0-9.18-3.31-14.42-6.3a20.859 20.859 0 0 0-9.97-2.44c-7.69-.06-16.17 4.08-17.07 13.91v1.12c-.06 3.34 1.15 6.58 3.4 9.07 2.36 2.7 5.93 5.16 11.06 7.9l1.41-.13.4-1.32c-.89-2.72-1.38-5.55-1.47-8.41 0-3.36.99-5.16 2.32-6.27a8.327 8.327 0 0 1 5.38-1.54c2.77.07 5.5.62 8.09 1.6 1.94.83 4.03 1.24 6.14 1.22 7.93-.09 16.43-4.64 19.27-9.55l-.16-1.42zm-23 7.77a27.945 27.945 0 0 0-9-1.76c-2.51-.12-4.99.63-7 2.13-2.01 1.64-3.25 4.36-3.24 8.2.04 2.1.32 4.18.82 6.22-2.9-1.54-5.53-3.53-7.8-5.9a10.623 10.623 0 0 1-2.77-7.43v-.95c.79-8.23 7.56-11.52 14.54-11.6 3.03-.04 6.04.68 8.72 2.1 4.68 2.59 8.06 6.61 15.67 6.61 3.15-.08 6.26-.59 9.27-1.52a24.658 24.658 0 0 1-13.97 4.95c-1.79.03-3.55-.31-5.19-1.01z" fill="#FFF"/><path d="M3525.57 1197.5c2.89-2.36 5.53-4.75 5.83-6.17l.19-1.48c-.14-2.1-.52-4.17-1.13-6.17-.3-1.24-.62-2.47-.86-3.71h-557.17c.34 8.02.85 16.03 1.53 24.03h546.02c.4-.88.9-1.71 1.5-2.47 1.22-1.48 2.59-2.83 4.09-4.03zm-1394.58 66.48a8.714 8.714 0 0 1-4.5-3.83c-.98-1.62-1.79-3.34-2.43-5.12-1.27-3.49-2.69-6.78-3.87-7.49-.81-.67-2.97-1.13-5.56-1.28-1.5-.11-3.1-.19-4.72-.34v528.05h1010.88v-23.55h-981.75v-487.98a12.628 12.628 0 0 1-5.9 1.88zm1479.2 24.61a10.23 10.23 0 0 1-5.68 4.98c-6.74 2.19-14.31 1.66-21.7.46v456.35h-135.12v23.59h164.22v-488.69c-.56 1.11-1.12 2.22-1.72 3.25zm-1.35-19.19c-1.75-4.22-3.8-8.31-6.14-12.24-.45 1.06-.97 2.07-1.57 3.05a8.773 8.773 0 0 1-4.57 3.82l-2.17.34c-3.69-.1-6.61-2.26-9.47-4.02-.73-.48-1.47-.94-2.17-1.36v6.89c8.03 1.77 17.84 3.83 26.09 3.52zm-1410.49-89.41c-.24 1.23-.57 2.54-.87 3.77-.6 2.01-.98 4.08-1.12 6.17l.2 1.47c.24.99 1.73 2.65 3.75 4.34 2.23 1.74 4.3 3.68 6.17 5.79.6.76 1.1 1.59 1.49 2.47h744.51c-1.37-7.99-2.58-16-3.64-24.03z" fill="#54264E"/><path d="M3615.71 1245.38c-3.64.16-7.18.51-8.25 1.45-.85.56-1.96 2.51-2.9 4.97-.61 1.55-1.22 3.1-1.85 4.64a96.39 96.39 0 0 1 6.06 12.27c-8.14.31-17.83-1.75-25.74-3.65-4.33-1.01-8.14-1.94-10.83-2.43l-4.53-.72c-1.66.98-3.54 1.55-5.47 1.66l-2.14-.35c-1.5-.53-2.8-1.49-3.76-2.75-16.87-1.56-35.03 0-44.35 15.62-15.77 26.41-30.51 55.11-7.18 80.75 9.2 10.12 35.71 23.28 41.24 39.38a40.53 40.53 0 0 1-6.67 2.79c-7.6 2.43-16.01 1.89-23.76 1.04-18.81-2.07-36.83-8.51-55.69-10.46-16.66-1.71-31.54 2.63-40.21 18.12-7.38 13.22-19.08 30.87-17.58 46.83 2.03 21.63 27.3 33.28 38 49.97 2.61 4.06 4.2 8.7 4.62 13.52.13 1.21.13 2.43 0 3.64-16.1 19.68-39.63 34.31-60.37 47.72-7.17 4.63-6.26 22.09-13.24 26.58 23.87-15.41 50.67-32.31 66.93-56.54 8.31-12.38 19.78-31.12 20.01-46.62.37-23.96-30.49-36.47-40.03-55.81a28.454 28.454 0 0 1-2.68-13.87c1.98-1.52 4.12-2.84 6.36-3.94 16.9-8.32 39.51-.95 56.44 2.88 17.46 3.97 38.37 9.73 55.3.43 7.44-4.07 11.36-11.68 15.04-18.96 4.2-8.31 11.39-18.24 12.13-27.83 1-13.63-18.19-24.67-27.03-31.61-13.47-10.62-27.25-22.99-28.85-41.33-.17-2.63-.02-5.28.45-7.88 4.73-4.11 10.92-6.08 16.98-7.29 15.36-2.87 31.72.69 46.77 3.33 4.46.78 9.29 1.86 14.2 2.66 7.4 1.22 14.98 1.74 21.72-.46 2.47-.87 4.5-2.66 5.69-5 .61-1.03 1.21-2.14 1.72-3.25.1-.2.2-.39.31-.59 4.03-7.91 10.49-16.94 12.05-25.84.67-4.89.17-9.86-1.47-14.52-.56.25-1.15.45-1.74.61-1.87.47-3.78.75-5.7.84zm-643.29-79.4c-.23-23.67-3.96-42.99-11.97-43.97-8.01-.99-15.62 19.85-13.03 45.35.46 4.15.97 8.29 1.52 12.4 1.06 7.94 2.28 15.83 3.65 23.66 11.14 64.12 32.2 124.93 56.27 183.92 4.95 11.47 7.81 16.91 8.5 16.44.69-.46-.86-6.44-4.59-17.91-18.21-59.65-33.1-121.15-38.33-182.45-.67-7.87-1.19-15.76-1.53-23.66-.27-4.59-.42-9.18-.49-13.78z" fill="#15587B"/><path d="M3055.32 1523.78c9.33 12.74 14.58 19.1 15.46 19.19.89.1-2.91-7.05-12.14-21.65-56.67-84.11-129.06-160.44-220.88-209.53-29.96-16.16-58.66-18.19-60.71-10.49-2.21 8.09 21.03 20.4 49.88 33.48 89.73 39.98 166.6 109.55 228.39 189z" fill="#54264E"/><path d="M3137.91 1371.3l-.98-.86-10.3-1.63-4.63-10.11-1.09-.73-1.09.73-4.62 10.11-10.33 1.63-.96.86.29 1.29 7.48 7.9-1.76 11.17.49 1.23 1.28.08 9.21-5.24 9.21 5.24 1.28-.08.5-1.23-1.78-11.17 7.49-7.9zm-9.94 7.87l-.33 1.1 1.45 9.23-7.6-4.33h-1.18l-7.6 4.33 1.47-9.23-.34-1.1-6.24-6.59 8.58-1.34.92-.71 3.8-8.34 3.8 8.34.92.71 8.58 1.34z" fill="#183F5E"/><path d="M3124.84 1583.91c.49-.71-1.85-7.57-7.15-20.52-31.45-82.92-50.21-171.6-46.43-258.63 1.1-28.1-1.01-51.48-9.17-52.74-7.84-1.21-17.25 22.51-16.09 52.55 3.33 91.82 29.78 179.75 67.84 260.5 6.8 13.42 10.49 19.59 11 18.84z" fill="#8EAA6D"/><path d="M2146.91 1340.97h1239v110h-1239z" fill="#FFF"/><path d="M2199.42 1200.83c-2.7-2.36-6.09-4.54-7.43-8.34a9.79 9.79 0 0 1-.43-2.99c.13-2.48.56-4.93 1.28-7.3.61-1.98.98-4.02 1.12-6.09.06-.69-.1-1.39-.46-1.99a3.79 3.79 0 0 0-2.21-1.22c-1.52-.34-3.07-.54-4.63-.6-3.56-.3-7.6-.11-10.98-2.43-2.43-1.86-3.52-4.56-4.59-7.17a45.27 45.27 0 0 0-3.04-6.87c-.4-.78-1.05-1.4-1.85-1.77l-.59-.08c-1.22-.1-3.89 1.36-6.67 3.22-2.78 1.87-5.81 3.93-9.58 4.02-3.77.08-6.73-2.25-9.57-4.03-2.84-1.78-5.47-3.32-6.69-3.21l-.57.08c-.8.36-1.46.98-1.85 1.77-.8 1.36-1.47 2.79-2 4.27-1.39 3.35-2.44 7.3-5.61 9.73-2.51 1.78-5.41 2.01-8.21 2.26-2.45.05-4.9.31-7.31.76-.86.14-1.64.57-2.21 1.22-.36.6-.52 1.29-.46 1.98.13 2.07.51 4.11 1.12 6.09.71 2.37 1.14 4.82 1.28 7.3.01 1.01-.13 2.02-.44 2.99-.99 2.89-3.19 4.76-5.3 6.58a42.393 42.393 0 0 0-5.52 5.02 3.225 3.225 0 0 0-.33 4.54l.33.33c1.03 1.18 2.17 2.27 3.41 3.24 2.7 2.35 6.09 4.54 7.42 8.34.3.97.44 1.98.43 2.99-.13 2.48-.56 4.93-1.28 7.3-.61 1.98-.98 4.02-1.12 6.09-.05.69.12 1.38.47 1.98a3.73 3.73 0 0 0 2.21 1.22c1.52.34 3.06.54 4.62.6 3.57.3 7.61.11 10.97 2.43 2.44 1.86 3.52 4.56 4.6 7.17.8 2.36 1.81 4.65 3 6.85.4.78 1.05 1.4 1.85 1.76l.59.09c1.22.11 3.9-1.35 6.67-3.22 2.77-1.86 5.83-3.93 9.58-4.02 3.77.09 6.73 2.26 9.59 4.02 2.85 1.77 5.46 3.33 6.67 3.23l.58-.09c.8-.36 1.46-.98 1.86-1.76.79-1.37 1.46-2.8 2-4.28 1.37-3.34 2.43-7.3 5.59-9.74 2.51-1.77 5.43-2.01 8.22-2.24 2.46-.06 4.9-.32 7.32-.78.85-.14 1.62-.57 2.19-1.21.37-.6.54-1.3.48-2-.14-2.06-.52-4.1-1.12-6.08-.73-2.38-1.16-4.83-1.29-7.3-.01-1.02.14-2.03.43-3 .99-2.88 3.2-4.74 5.31-6.58 1.98-1.5 3.83-3.18 5.52-5 1.35-1.17 1.5-3.2.33-4.54-.1-.12-.21-.23-.33-.33a24.952 24.952 0 0 0-3.37-3.21z" fill="#EEB62A"/><path d="M2191.94 1196.83c-1.68-1.43-2.92-2.85-3.13-3.68l-.16-1.25c.12-1.78.43-3.54.93-5.24.26-1.05.53-2.1.73-3.21.21-1.03.33-2.08.34-3.14.04-1.49-.37-2.96-1.18-4.19a7.119 7.119 0 0 0-4.15-2.7c-2.27-.48-4.58-.75-6.9-.8-2.16-.14-3.97-.53-4.63-1.05-1.02-.62-2.17-3.47-3.25-6.47-.53-1.55-1.21-3.04-2.02-4.45-.85-1.52-2.18-2.69-3.77-3.3l-1.83-.36c-3.04.08-5.45 1.95-7.81 3.46-2.36 1.5-4.55 2.84-5.69 2.77-1.15-.07-3.39-1.17-5.68-2.77-2.3-1.61-4.74-3.38-7.82-3.47l-1.8.29a7.38 7.38 0 0 0-3.75 3.31c-1.14 2.12-2.1 4.34-2.86 6.63-.78 2.1-1.7 3.81-2.41 4.28-.89.82-3.82 1.11-6.89 1.26-1.56.06-3.12.27-4.65.65a7.102 7.102 0 0 0-4.15 2.7 7.2 7.2 0 0 0-1.18 4.19c.09 2.13.43 4.24 1.01 6.29.5 1.7.81 3.46.93 5.23l-.15 1.26c-.25 1.15-2.45 3.14-4.87 5.24a24.496 24.496 0 0 0-3.41 3.42c-2.42 2.69-2.42 6.87 0 9.56 1.57 1.8 3.29 3.45 5.15 4.92 1.69 1.42 2.93 2.84 3.14 3.68l.15 1.25c-.11 1.78-.43 3.54-.93 5.24-.58 2.04-.92 4.16-1.01 6.29-.05 1.49.36 2.95 1.17 4.19 1.04 1.37 2.51 2.33 4.15 2.7.98.25 1.96.42 2.96.5 1.36.14 2.7.2 3.94.3 2.17.13 3.97.53 4.65 1.11 1.01.61 2.17 3.45 3.23 6.47.53 1.54 1.21 3.03 2.03 4.43.84 1.53 2.17 2.7 3.75 3.31l1.8.3c1.75-.11 3.44-.67 4.93-1.63 1.01-.58 1.94-1.23 2.89-1.84 2.29-1.59 4.53-2.85 5.68-2.77 1.13-.08 3.38 1.18 5.68 2.77s4.75 3.37 7.82 3.47l1.79-.3c1.59-.6 2.92-1.77 3.76-3.3 1.14-2.11 2.1-4.33 2.85-6.63.78-2.09 1.71-3.8 2.42-4.28.89-.81 3.81-1.11 6.88-1.25 1.57-.06 3.13-.28 4.66-.65a7.167 7.167 0 0 0 4.15-2.7 7.313 7.313 0 0 0 1.18-4.25c-.09-2.13-.43-4.24-1.02-6.28-.5-1.71-.81-3.46-.93-5.24l.17-1.25c.24-1.15 2.45-3.14 4.86-5.18 1.24-1.03 2.38-2.17 3.41-3.42a7.844 7.844 0 0 0 1.82-4.79c0-.93-.2-1.85-.57-2.69-.33-.75-.75-1.46-1.25-2.1a38.72 38.72 0 0 0-5.16-4.84zm1.89 7.62c1.12 1 1.24 2.74.28 3.9-.09.1-.18.2-.28.29a36.662 36.662 0 0 1-4.59 4.31c-1.75 1.58-3.59 3.14-4.41 5.67-.24.83-.36 1.7-.35 2.57.11 2.13.46 4.25 1.06 6.29.51 1.7.82 3.46.94 5.24.04.6-.09 1.2-.4 1.72-.47.55-1.12.92-1.82 1.04-2.01.4-4.04.62-6.08.67-2.32.2-4.74.4-6.83 1.93-2.64 2.16-3.5 5.52-4.64 8.38a23.15 23.15 0 0 1-1.67 3.69c-.33.67-.87 1.21-1.53 1.52l-.49.07c-1.01.09-3.24-1.17-5.54-2.77s-4.83-3.39-7.96-3.47c-3.12.08-5.59 1.94-7.96 3.47-2.37 1.53-4.54 2.86-5.54 2.76l-.49-.07a3.29 3.29 0 0 1-1.54-1.52c-.99-1.89-1.82-3.86-2.49-5.9-.9-2.24-1.8-4.57-3.82-6.17-2.78-1.99-6.14-1.82-9.11-2.09-1.3-.05-2.58-.22-3.84-.52-.71-.12-1.36-.49-1.83-1.05-.3-.51-.44-1.11-.4-1.7.12-1.78.43-3.54.93-5.24.6-2.04.96-4.16 1.07-6.29.01-.87-.11-1.74-.36-2.58-1.13-3.26-3.92-5.15-6.17-7.17-1.02-.84-1.97-1.78-2.82-2.8a2.824 2.824 0 0 1 0-4.19c1.4-1.58 2.93-3.02 4.58-4.32 1.75-1.57 3.58-3.14 4.4-5.67.26-.83.38-1.7.37-2.57-.12-2.13-.47-4.24-1.07-6.29-.5-1.7-.82-3.46-.93-5.24-.04-.59.09-1.19.39-1.71.47-.55 1.12-.92 1.83-1.04 2-.39 4.04-.62 6.08-.66 2.31-.21 4.73-.41 6.81-1.94 2.65-2.1 3.51-5.51 4.66-8.38.44-1.28 1-2.51 1.66-3.68.33-.68.87-1.21 1.54-1.52l.48-.07c1.01-.1 3.24 1.16 5.55 2.76 2.31 1.61 4.83 3.4 7.95 3.47 3.12.07 5.6-1.94 7.96-3.46 2.36-1.52 4.54-2.86 5.54-2.77l.48.07c.65.31 1.18.83 1.51 1.49.99 1.89 1.83 3.87 2.5 5.91.9 2.24 1.8 4.56 3.82 6.17 2.79 1.99 6.14 1.82 9.12 2.09 1.29.05 2.58.22 3.85.52.71.12 1.35.49 1.83 1.04.3.52.43 1.12.39 1.72-.12 1.78-.43 3.54-.94 5.24-.59 2.04-.95 4.16-1.06 6.29-.01.87.11 1.74.35 2.57 1.14 3.27 3.93 5.15 6.18 7.18 1.03.84 1.99 1.78 2.85 2.81z" fill="#EFC560"/><path d="M2223.57 1367.92c-6.75 0-11.96 2.53-15.65 7.61-3.68 5.07-5.53 12.14-5.55 21.21 0 18.86 7.07 28.3 21.2 28.3 5.93 0 13.12-1.49 21.56-4.46v15.04a59.93 59.93 0 0 1-23.18 4.35c-12.29 0-21.7-3.74-28.2-11.21-6.51-7.47-9.79-18.19-9.83-32.17a52.529 52.529 0 0 1 4.87-23.09c2.97-6.36 7.77-11.67 13.79-15.22a40.772 40.772 0 0 1 21.06-5.3c8.58.1 17.03 2.13 24.72 5.97l-5.77 14.57a99.064 99.064 0 0 0-9.54-3.93 28.372 28.372 0 0 0-9.48-1.67zm115.34 28.52c0 13.98-3.44 24.74-10.33 32.26-6.88 7.51-16.74 11.27-29.58 11.27-12.85 0-22.71-3.76-29.58-11.27-6.88-7.52-10.32-18.31-10.32-32.37 0-14.08 3.45-24.83 10.35-32.24 6.9-7.41 16.79-11.12 29.67-11.12 12.91 0 22.76 3.74 29.55 11.21 6.78 7.47 10.2 18.22 10.24 32.26zm-61.18 0c0 9.44 1.78 16.56 5.34 21.33 3.56 4.78 8.87 7.17 15.93 7.17 14.19 0 21.28-9.5 21.28-28.5s-7.05-28.52-21.16-28.56c-7.07 0-12.4 2.4-16 7.2-3.6 4.8-5.4 11.92-5.39 21.36z" fill="#183F5E"/><path d="M3618.87 1190.46c-.29-.97-.43-1.98-.42-2.99.11-2.47.52-4.92 1.22-7.3.61-1.98.97-4.02 1.12-6.08.04-.7-.11-1.39-.47-1.99a3.735 3.735 0 0 0-2.2-1.22c-1.52-.34-3.07-.54-4.63-.6-3.56-.3-7.59-.11-10.96-2.43-2.44-1.86-3.51-4.56-4.59-7.16-.81-2.37-1.81-4.66-3-6.86-.4-.78-1.06-1.41-1.86-1.77l-.57-.08c-1.22-.1-3.9 1.36-6.68 3.22s-5.81 3.93-9.57 4.02c-3.77.08-6.72-2.25-9.57-4.03-2.85-1.78-5.45-3.32-6.66-3.21l-.58.08c-.81.36-1.46.98-1.86 1.77-.8 1.35-1.47 2.78-1.99 4.27-1.39 3.34-2.44 7.29-5.59 9.73-2.51 1.77-5.42 2-8.21 2.25-2.45.05-4.9.31-7.31.76-.85.14-1.63.57-2.21 1.22-.35.6-.51 1.29-.46 1.98.14 2.07.52 4.11 1.13 6.08.69 2.38 1.09 4.83 1.21 7.3.05 1.03-.07 2.05-.34 3.04-.99 2.88-3.19 4.76-5.31 6.58a43.633 43.633 0 0 0-5.51 5.01c-.63.67-1.01 1.52-1.09 2.44.08.91.47 1.76 1.09 2.43 1.04 1.18 2.17 2.27 3.4 3.25 2.71 2.34 6.09 4.53 7.42 8.33.3.96.45 1.98.44 2.99-.12 2.47-.53 4.92-1.22 7.3a26.18 26.18 0 0 0-1.12 6.08c-.05.69.1 1.39.46 1.98a3.76 3.76 0 0 0 2.21 1.22c1.52.34 3.07.54 4.62.59 3.56.31 7.59.11 10.97 2.44 2.44 1.86 3.52 4.56 4.59 7.16.81 2.36 1.82 4.65 3.01 6.85a3.77 3.77 0 0 0 1.85 1.76l.59.09c1.21.11 3.88-1.35 6.66-3.21 2.78-1.86 5.81-3.93 9.56-4.03 3.76.1 6.72 2.26 9.57 4.03 2.85 1.76 5.46 3.32 6.66 3.22l.59-.09c.8-.36 1.45-.98 1.85-1.76.79-1.36 1.46-2.8 2-4.28 1.39-3.33 2.44-7.3 5.6-9.73 2.51-1.78 5.41-2.01 8.2-2.24 2.45-.06 4.9-.32 7.31-.78.85-.14 1.62-.57 2.19-1.21.37-.6.54-1.3.48-2-.15-2.06-.52-4.1-1.12-6.08-.71-2.37-1.11-4.82-1.22-7.3-.01-1.01.13-2.02.42-2.99 1-2.88 3.2-4.74 5.31-6.58 1.98-1.51 3.82-3.18 5.51-5 1.34-1.16 1.5-3.18.34-4.53-.1-.12-.22-.23-.34-.33a24.303 24.303 0 0 0-3.4-3.25c-2.79-2.43-6.09-4.61-7.52-8.36z" fill="#EEB62A"/><path d="M2430.53 1438.94h-22.67l-36.58-63.86h-.53c.73 11.28 1.09 19.33 1.09 24.13v39.73h-15.93v-84.42h22.5l36.52 63.23h.37c-.58-10.97-.88-18.72-.87-23.27v-39.96h16.05zm53-47.65h33.38v43.87a92.45 92.45 0 0 1-15.29 3.74c-4.83.71-9.7 1.07-14.58 1.07-12.7 0-22.39-3.75-29.08-11.26-6.69-7.52-10.04-18.29-10.05-32.33 0-13.66 3.88-24.31 11.65-31.94 7.76-7.64 18.54-11.46 32.32-11.47 8.58-.01 17.08 1.77 24.97 5.21l-5.93 14.36a42.079 42.079 0 0 0-19.2-4.63c-7.72 0-13.9 2.6-18.53 7.81-4.63 5.2-6.96 12.21-6.98 21.02 0 9.17 1.87 16.18 5.61 21.03 3.74 4.85 9.16 7.27 16.26 7.27 3.81-.01 7.61-.4 11.34-1.16v-17.66h-15.89z" fill="#183F5E"/><path d="M3616.42 1174.1a7.189 7.189 0 0 0-4.16-2.71c-2.27-.47-4.58-.74-6.9-.79-1.33-.04-2.64-.28-3.91-.7-.26-.1-.51-.23-.73-.4-1.01-.62-2.17-3.47-3.23-6.48-.54-1.54-1.22-3.03-2.03-4.44a7.299 7.299 0 0 0-3.76-3.3l-1.79-.29c-3.04.08-5.46 1.95-7.82 3.45-2.36 1.51-4.55 2.85-5.7 2.78-1.14-.07-3.37-1.17-5.68-2.78-2.32-1.6-4.75-3.37-7.81-3.46l-1.8.29a7.422 7.422 0 0 0-3.77 3.31 41.783 41.783 0 0 0-2.85 6.63c-.79 2.1-1.71 3.81-2.42 4.28-.88.81-3.81 1.11-6.88 1.25-1.57.06-3.13.28-4.66.65a7.134 7.134 0 0 0-4.15 2.71 7.208 7.208 0 0 0-1.19 4.19c.02 1.05.13 2.11.34 3.14.21 1.05.47 2.16.72 3.14.51 1.71.83 3.46.95 5.24l-.17 1.26c-.24 1.15-2.45 3.14-4.86 5.24a23.388 23.388 0 0 0-3.41 3.41c-.5.64-.93 1.35-1.26 2.1-.37.84-.56 1.76-.57 2.69.05 1.76.7 3.46 1.83 4.79 1.57 1.79 3.29 3.44 5.15 4.91 1.69 1.42 2.92 2.85 3.14 3.68l.15 1.25c-.12 1.78-.43 3.54-.93 5.24-.59 2.05-.93 4.16-1.02 6.29-.04 1.49.36 2.95 1.17 4.19a7.196 7.196 0 0 0 4.17 2.7c2.27.48 4.58.75 6.9.8 2.16.13 3.97.53 4.64 1.11 1.02.62 2.17 3.45 3.25 6.47.53 1.54 1.21 3.03 2.02 4.43.2.33.41.64.64.94a6.734 6.734 0 0 0 3.13 2.37l1.8.3c1.61-.09 3.18-.58 4.56-1.43 1.13-.63 2.19-1.36 3.25-2.04 2.3-1.59 4.55-2.85 5.68-2.77 1.41.2 2.75.74 3.9 1.6.58.35 1.19.75 1.8 1.17 2.36 1.52 4.74 3.38 7.81 3.47l1.79-.3c1.6-.61 2.93-1.77 3.77-3.3.5-.84.93-1.72 1.3-2.63.58-1.35 1.01-2.73 1.55-4 .79-2.09 1.71-3.8 2.42-4.28.89-.81 3.82-1.11 6.89-1.25 1.57-.06 3.12-.28 4.65-.65.5-.13.99-.31 1.46-.52a6.591 6.591 0 0 0 2.7-2.18 7.37 7.37 0 0 0 1.17-4.24 27.34 27.34 0 0 0-1.01-6.29c-.5-1.7-.81-3.46-.93-5.24l.16-1.26c.24-1.14 2.45-3.14 4.86-5.17a25.71 25.71 0 0 0 3.36-3.4c2.43-2.69 2.43-6.87 0-9.56-1.57-1.8-3.3-3.44-5.16-4.91-1.68-1.44-2.92-2.85-3.13-3.69l-.15-1.25c.11-1.77.42-3.53.93-5.24 0-.13.06-.28.1-.41.55-1.92.87-3.89.96-5.88.03-1.51-.4-2.99-1.23-4.23zm4.35 28.34c1.12 1 1.25 2.75.29 3.91-.09.1-.19.2-.29.29-1.4 1.56-2.94 3-4.58 4.3-1.76 1.58-3.58 3.14-4.42 5.67-.24.83-.36 1.7-.35 2.58.09 2.13.44 4.24 1.01 6.28.51 1.7.81 3.46.94 5.24.05.6-.1 1.2-.4 1.72-.47.55-1.11.92-1.82 1.05-2.01.39-4.04.61-6.08.67-2.32.19-4.73.39-6.82 1.92-2.66 2.16-3.51 5.52-4.66 8.38a23.15 23.15 0 0 1-1.67 3.69c-.33.67-.87 1.21-1.54 1.52l-.48.07c-1.02.09-3.24-1.17-5.55-2.77-2.29-1.6-4.83-3.39-7.96-3.47-3.12.08-5.59 1.94-7.95 3.47-2.36 1.53-4.54 2.86-5.54 2.76l-.49-.07a3.16 3.16 0 0 1-1.54-1.52 38.82 38.82 0 0 1-2.5-5.9c-.9-2.24-1.8-4.56-3.83-6.17-2.78-1.99-6.14-1.82-9.12-2.09-1.29-.05-2.58-.22-3.85-.52a3.12 3.12 0 0 1-1.83-1.04c-.3-.52-.43-1.11-.39-1.71.12-1.78.43-3.54.94-5.24.57-2.05.91-4.16 1.01-6.29.03-.86-.06-1.73-.3-2.56-1.12-3.27-3.92-5.16-6.16-7.18-1.03-.84-1.97-1.78-2.83-2.79-.52-.58-.84-1.32-.91-2.1.07-.79.38-1.52.91-2.1a35.9 35.9 0 0 1 4.58-4.31c1.76-1.57 3.6-3.14 4.41-5.67.25-.83.37-1.7.36-2.58a27.17 27.17 0 0 0-1.01-6.28c-.51-1.71-.81-3.46-.94-5.24-.05-.6.1-1.19.39-1.71.48-.55 1.12-.92 1.83-1.05 2.01-.39 4.05-.61 6.09-.66 2.31-.21 4.74-.4 6.82-1.93 2.65-2.1 3.5-5.51 4.66-8.38.43-1.28.99-2.52 1.66-3.68.33-.68.87-1.21 1.54-1.52l.48-.07c1.02-.1 3.25 1.16 5.54 2.76 2.31 1.6 4.84 3.4 7.96 3.47 3.12.07 5.6-1.94 7.97-3.46 2.36-1.52 4.55-2.86 5.55-2.77l.48.07c.66.31 1.21.85 1.54 1.52.99 1.89 1.82 3.87 2.5 5.91.9 2.24 1.8 4.56 3.82 6.17 2.79 1.99 6.14 1.82 9.12 2.09 1.29.05 2.58.22 3.85.52.71.12 1.36.49 1.83 1.04.29.52.43 1.12.39 1.72-.13 1.78-.43 3.54-.94 5.24-.57 2.05-.92 4.16-1.01 6.29-.01.87.11 1.74.36 2.57 1.13 3.27 3.93 5.15 6.18 7.18 1 .83 1.92 1.75 2.75 2.76z" fill="#EFC560"/><path d="M2554.77 1406.57v32.4h-17.86v-84.48h24.55c11.44 0 19.9 2.09 25.4 6.27 5.51 4.18 8.25 10.52 8.25 19.04a22.42 22.42 0 0 1-4.1 13.25 27.07 27.07 0 0 1-11.58 9.1c12.68 19 20.94 31.26 24.78 36.8h-19.82l-20.11-32.38zm0-14.57h5.77c5.67 0 9.84-.94 12.5-2.83 2.69-1.87 4.03-4.87 4.03-8.89 0-4.01-1.38-6.85-4.13-8.53-2.74-1.69-6.99-2.55-12.76-2.55h-5.41zm111.8 46.97l-6.11-20.14h-30.82l-6.1 20.14h-19.33l29.86-85h21.9l29.94 84.98zm-10.4-35.19c-5.69-18.25-8.89-28.58-9.57-30.97-.7-2.39-1.22-4.28-1.52-5.67-1.28 4.93-4.94 17.15-10.98 36.66zM2728.25 1438.97h-17.69v-69.14h-22.65v-14.86h63v14.83h-22.66zM2832.05 1354.52v54.54c.14 5.74-1.31 11.4-4.17 16.37-2.84 4.74-7.05 8.5-12.06 10.78a43.406 43.406 0 0 1-18.68 3.75c-10.83 0-19.24-2.78-25.24-8.34-6-5.56-8.99-13.15-8.99-22.79v-54.31h17.8v51.59c0 6.49 1.3 11.26 3.92 14.3 2.61 3.05 6.93 4.56 12.97 4.56 5.84 0 10.08-1.53 12.7-4.58 2.63-3.05 3.95-7.85 3.95-14.39v-51.48zm138.5 84.42l-6.08-20.12h-30.73l-6.08 20.12h-19.27l29.73-84.94h21.89l29.84 84.92zm-10.37-35.17c-5.68-18.24-8.86-28.55-9.53-30.95-.71-2.38-1.21-4.27-1.53-5.66-1.26 4.93-4.91 17.14-10.94 36.63zm-107.62 35.17v-84.42h17.76v69.64h33.98v14.78zm216.18 0v-84.42h17.93v84.42zm278.16-23.64c0 7.64-2.73 13.67-8.19 18.06-5.45 4.4-13.05 6.6-22.8 6.6-8.22.17-16.37-1.58-23.82-5.09v-16.67c4.66 2.17 9.47 3.96 14.4 5.38 3.52.98 7.14 1.51 10.79 1.56 3.91 0 6.91-.74 9.01-2.26a7.74 7.74 0 0 0 3.13-6.71 7.36 7.36 0 0 0-1.38-4.42 15.392 15.392 0 0 0-4.06-3.74c-3.53-2.12-7.17-4.04-10.92-5.73a51.29 51.29 0 0 1-11.57-7 26.211 26.211 0 0 1-6.15-7.81c-1.61-3.24-2.4-6.81-2.31-10.42 0-7.48 2.53-13.36 7.56-17.65 5.04-4.28 12.02-6.43 20.91-6.43 4.22-.01 8.44.51 12.51 1.57 4.26 1.14 8.42 2.61 12.45 4.4l-5.74 13.94a84.35 84.35 0 0 0-11.14-3.87c-2.83-.73-5.74-1.09-8.65-1.1-2.79-.19-5.55.65-7.77 2.37a7.887 7.887 0 0 0-2.71 6.19c-.03 1.46.36 2.89 1.1 4.14.92 1.36 2.11 2.52 3.48 3.41 3.65 2.21 7.43 4.19 11.31 5.93 7.86 3.79 13.25 7.58 16.16 11.38 2.99 4.02 4.54 8.95 4.4 13.97z" fill="#183F5E"/><path d="M3710.89 1944.84c-1.68.09-3.37-.1-4.98-.58v21.18c0 24.05 15.4 43.53 34.43 43.53h90.14c19.02 0 34.43-19.48 34.43-43.53v-23.47a22.14 22.14 0 0 1-10.42 2.87zm129.57 36.65c-5 7.43-13.61 9.67-21.3 9.15-1.81 0-3.65-2.28-3.65-4.58 0-2.3 1.81-4.57 3.65-4.57 7.29 0 13.13-1.72 15.8-5.73 1.93-3.08 2.72-6.72 2.27-10.32-.46-2.14.69-4.31 2.72-5.15 1.81-.56 3.65 1.21 4.07 3.44.05 0 1.47 10.31-3.56 17.76z" fill="#F2F2F2"/><path d="M3275.91 1438.97h-22.79l-36.77-63.53h-.53c.74 11.22 1.1 19.22 1.1 24v39.53h-16.01v-84h22.61l36.72 62.92h.4c-.58-10.92-.87-18.63-.86-23.15v-39.77h16.13z" fill="#183F5E"/><path d="M3892.91 1791.24c1.34 2.51 3.08 4.78 5.15 6.73 4.12-5.18 8.23-9.84 11.85-14-5.8 2.11-11.47 4.54-17 7.27z" fill="#F2F2F2"/><path d="M3033.26 1438.97h-17.7v-69.14h-22.65v-14.86h63v14.83h-22.65z" fill="#183F5E"/><path d="M3873.91 1803.12c1.92 5.42 5.44 9.96 10 12.85a94.35 94.35 0 0 1 5-7.82c-3.02-3.27-5.55-7.04-7.5-11.18-1.99 2.25-5 3.92-7.5 6.15z" fill="#F2F2F2"/><path d="M3357.93 1430.19c0-3.2.85-5.61 2.56-7.22 1.71-1.62 4.21-2.41 7.48-2.41 2.69-.17 5.32.74 7.33 2.52a11.058 11.058 0 0 1 0 14.27 9.925 9.925 0 0 1-7.3 2.6c-2.72.18-5.39-.74-7.42-2.54a9.455 9.455 0 0 1-2.65-7.22zm17.05-19.5h-13.91l-2.91-55.72h19.74z" fill="#183F5E"/><path d="M3874.84 1690.97l5.06-11c-2.81 2.63-6.23 5.77-9 8.91 1.25.81 2.57 1.52 3.94 2.09z" fill="#F2F2F2"/><path d="M3183.91 1396.44c0 13.98-3.45 24.74-10.35 32.26-6.91 7.51-16.79 11.27-29.66 11.27-12.86 0-22.74-3.76-29.64-11.27-6.9-7.52-10.35-18.31-10.35-32.37 0-14.08 3.45-24.83 10.37-32.24 6.92-7.41 16.83-11.12 29.74-11.12 12.94 0 22.83 3.74 29.64 11.21 6.8 7.47 10.22 18.22 10.25 32.26zm-61.33 0c0 9.44 1.78 16.56 5.35 21.33 3.57 4.78 8.89 7.17 15.97 7.17 14.22 0 21.34-9.5 21.34-28.5s-7.08-28.52-21.22-28.56c-7.08 0-12.43 2.4-16.03 7.2-3.6 4.8-5.39 11.92-5.39 21.36z" fill="#183F5E"/><path d="M3863.49 1811.04c-2.7 2.67-5.4 4.82-8.07 7.49 2.67 4.27 7.52 11.76 15.04 16.57l6.45-9.62c-6.99-4.28-11.29-9.56-13.42-14.44zm6.77-108.8c-2.7-1.11-5.24-2.55-7.58-4.3-3.25 3.76-7.05 8.6-10.84 13.44 3.25 3.25 7.12 5.82 11.39 7.54 2.16-5.92 4.86-11.3 7.03-16.68zm-6.14 142.85a51.182 51.182 0 0 1-17.08-16.64c-3.75 4.68-6.41 7.81-7.48 9.36v1.04c1.6 4.17 6.94 15.11 17.08 19.79 2.13-4.69 4.8-8.86 7.48-13.55zm-19.65-124.12c-2.15 3.08-4.3 5.63-6.45 8.7 5.04 4.07 10.9 7.04 17.22 8.7 1.57-2.75 2.83-5.67 3.76-8.7a52.346 52.346 0 0 1-14.53-8.7zm7.37 29.6a67.023 67.023 0 0 1-19.68-10.15c-2.79 4.27-5.27 8.73-7.44 13.35 6.5 5.77 14.4 9.65 22.87 11.21 1.17-4.87 2.58-9.68 4.25-14.41zm-5.92 131.1c1.48-4.13 3.28-8.15 5.4-12.01-6.48-2.88-12.07-7.39-16.19-13.07l-3.25 14.11c1.62 2.6 5.39 8.87 14.04 10.97zm-33.99-103.87c3.76 3.73 12.91 9.61 27.45 11.75 1.06-4.28 2.68-8.51 3.76-12.82a55.597 55.597 0 0 1-25.29-11.75c-2.2 4.16-4.18 8.44-5.92 12.82zm24.56 23.39a66.926 66.926 0 0 1-29.38-11.64c-2.67 5.81-4.8 12.17-7.46 18.51 4.79 4.23 16.54 12.71 30.96 12.71 2.14-6.89 3.75-13.24 5.88-19.58zm-8.7 31.79c-11.83-.6-23.2-4.87-32.53-12.21-1.59 5.31-3.2 10.62-4.82 16.47 7.47 4.26 21.32 10.63 34.12 10.11 1.11-4.25 3.23-12.77 3.23-14.37zm-6.14-166.26c.52-3.76 1.02-7.53 1.53-10.75-1.53 3.22-3.58 6.45-5.11 9.68 1.01.53 2.55.53 3.58 1.07zm-3.75 209.83c.94-5.91 2.19-11.76 3.75-17.54-12.82-.53-26.17-5.85-34.71-10.09-.51 3.05-1.22 6.07-2.13 9.03.54 3.18 1.61 6.37 2.13 9.04 9.36 5.73 20 9.02 30.96 9.56zm-10.07-190.08c3.72 1.5 7.75 2.04 11.73 1.59.08-3.19.44-6.37 1.06-9.51-2.73-.38-5.41-1.09-7.98-2.11-1.61 3.17-3.2 6.34-4.81 10.03zm-8.18 19.88a28.46 28.46 0 0 0 17.89 3.65c0-3.16.53-6.81.53-9.97-4.21 0-8.44.52-15.27-2.09-1.07 2.64-2.11 5.32-3.15 8.41zm-9.21 28.02c5.32 3.1 15.97 7.23 26.07 3.62 0-3.62.53-8.76.53-14.94-7.39.5-14.77-1.11-21.28-4.64-1.59 5.13-3.77 10.29-5.32 15.96zm-6.14 24.23c6.45 3.04 13.64 4.3 20.78 3.66 1.58-3.66 3.66-7.32 5.31-10.47-8.09.37-16.15-1.25-23.42-4.72a75.897 75.897 0 0 0-2.67 11.53zm-6.14 25.7c3.29 1.6 9.34 4.23 15.38 4.23 2.2-5.28 3.85-9.49 6.11-13.69a57.342 57.342 0 0 1-18.7-4.23c-1.15 4.17-1.69 8.96-2.79 13.69zm10.74 16.03c-4.24-.51-8.37-1.73-12.21-3.62-.53 3.62-1.07 6.78-1.6 10.41 1.07 7.8 2.67 15.07 4.27 22.35 2.61-9.89 5.81-19.61 9.54-29.14zm-12.79 75.69c-1.06-4.76-2.13-9.01-3.18-14.31a66.27 66.27 0 0 1-39.29 3.72v12.71c6.39 3.18 21.79 6.89 42.47-2.12zm-43.49-23.27c8.1 2.1 23.78 3.67 37.86-3.16-1.61-7.34-3.24-15.28-4.32-23.19-10.26 3.67-22.16 4.22-32.98 3.16-.02 7.9-.02 16.33-.56 23.19zm31.21-38.49c-.44-3.84-1.15-7.66-2.12-11.4a62.304 62.304 0 0 1-27.02 3.09c0 4.16-.54 8.34-.54 11.92 6.93.54 19.12 1.05 29.68-3.61zm-29.68-21.39c8.61 1.61 17.5.69 25.59-2.67-1.09-5.33-1.64-10.66-2.73-16.52a44.733 44.733 0 0 1-21.76 2.13c-.61 5.87-.61 11.73-1.1 17.06zm2.05-28.81c6.39.96 12.91.23 18.93-2.12-.55-5.3-1.64-10.08-2.17-15.38a60.305 60.305 0 0 1-15.67 1.59c-.63 5.28-1 10.6-1.09 15.91zm2.05-27.74c3.31-.53 7.75-.53 13.3-2.13-.56-3.73-1.11-7.47-1.67-10.66-3.25.88-6.61 1.24-9.97 1.06-.5 3.74-1.06 8-1.66 11.73zm3.58-24.07c2.27.1 4.53-.26 6.65-1.03-1.11-7.35-1.67-13.64-2.76-19.42-1.66 6.74-2.96 13.57-3.89 20.45zm-20.98 158.03v-15.22a37.63 37.63 0 0 1-16.37 6.3c2.18 5.24 3.82 9.97 5.45 14.68 3.31-.51 7.1-2.61 10.92-5.76zm-25.07-37.99c1.57 5.87 3.14 11.77 5.23 17.65 6.54-.7 12.55-3.96 16.77-9.09-2.1-3.76-4.19-8.59-6.8-14.45a32.089 32.089 0 0 1-15.2 5.89zm5-33.02a44.217 44.217 0 0 1-12.68 4.16c.66 5.48 1.87 10.88 3.65 16.11 3.18.51 8.5.51 14.26-5.19-1.53-4.69-3.64-9.37-5.23-15.08zm-7.16-20.47a21.867 21.867 0 0 1-10.63 3.21c0 3.19 1.06 6.39 1.59 9.59 2.12 0 5.85-1.07 11.71-3.73a58.57 58.57 0 0 1-2.67-9.07zm-10.12-31.73c-1.93.91-4.01 1.45-6.14 1.6 1.01 6.89 1.52 13.78 3.07 20.66 2.04.54 5.12.54 8.7-3.16-2.04-6.37-3.58-12.73-5.63-19.1zm-9.21-32.24c.55 7.34 1.11 14.67 1.67 21.49 1.52-.15 3.03-.5 4.47-1.04-2.19-7.34-4.43-14.16-6.14-20.45zM3854.52 1896h-143c-8.57 0-15.74 9.14-15.74 19.96 0 10.83 7.27 19.96 15.74 19.96h143c8.57 0 15.74-9.12 15.74-19.96 0-10.83-6.72-19.96-15.74-19.96zm-1908.61 128.46h547.98v63.97h-547.98zm572.03 79.84v98.77h411.89v-98.77zm205.94 48.79c-8.1 0-14.65-6.23-14.65-13.91s6.55-13.91 14.65-13.91c8.1 0 14.66 6.23 14.66 13.91s-6.57 13.91-14.66 13.91zm173.3 175.88h15.65l8.81-99.28h-33.26l8.8 99.28zm-362.25 0h15.65l8.81-99.28h-33.26l8.8 99.28zm-30.8-118.22h439v15.87h-439zM2571.16 2008.46h92.4v13.17h-92.4zm0 26.35h92.4v13.16h-92.4zm14.52-58.28c.32 0 35.31-12.51 77.88-12.51 42.57 0 77.55 12.51 77.88 12.51 1.32.33 2.3.66 3.63.66 4.62 0 8.91-2.97 10.23-7.9 1.98-5.93-.99-12.51-6.93-14.49-1.32-.66-38.61-13.83-84.81-13.83s-83.49 13.17-85.14 13.83c-5.61 1.98-8.92 8.56-6.93 14.49 2.31 6.25 8.58 9.22 14.19 7.24" fill="#F2F2F2"/><path d="M2531.91 2087.97h264v-185h-264v185zm244.2-19.82h-224.4V1922.8h224.4v145.35z" fill="#F2F2F2"/><path d="M2747.68 2019.77l1.32-8.89-8.55 1.65-3.3-8.56-6.58 5.93-6.91-5.93-2.96 8.56-8.88-1.65 1.64 8.89-8.55 2.96 5.92 6.91-5.92 6.58 8.55 3.29-1.64 8.55 8.88-1.31 2.96 8.22 6.91-5.59 6.58 5.59 3.3-8.22 8.55 1.31-1.32-8.55 8.23-3.29-5.6-6.58 5.6-6.91z" fill="#F2F2F2"/><path d="M3147.69 1901.57V2296.86c0 25.49 20.64 46.14 46.09 46.14 25.45 0 46.09-20.65 46.09-46.14v-295.75h17.28v295.75c0 25.49 20.63 46.14 46.08 46.14s46.09-20.65 46.09-46.14v-557.67c36.51-18.46 154.52-84.98 234.5-215.7 8.21-13.48 3.95-31.08-9.52-39.3-13.46-8.23-31.03-3.96-39.24 9.52-41.99 69.01-97.35 119.07-142.24 151.61-22.42 16.27-42.17 28.17-56.15 35.91-5.33 2.95-9.8 5.29-13.28 7.05-.95-.1-1.91-.15-2.88-.15H3176.5c-1 0-1.99.06-2.96.16-30.93-15.65-140.89-77.87-211.6-194.57-8.21-13.48-25.78-17.75-39.25-9.53-13.46 8.22-17.72 25.82-9.51 39.3 79.98 130.73 198 197.26 234.51 215.71v162.37z" fill="#661B62"/><path d="M3229.57 1666.79c44.91 10.52 89.79-17.57 100.24-62.75a84.016 84.016 0 0 0-2.9-47.87c-9.37-25.69-31-46.29-59.46-52.96-41.57-9.74-83.1 13.62-97.34 52.97a82.302 82.302 0 0 0-2.91 9.77c-10.46 45.18 17.46 90.32 62.37 100.84z" fill="#661B62"/></g></svg>