<svg id="Layer_1" xmlns="http://www.w3.org/2000/svg" xmlns:xlink="http://www.w3.org/1999/xlink" viewBox="0 0 253 277"><style>.st0{fill:#f5b335}.st1{fill:#8eaa6d}.st2{fill:#661b62}.st5{fill:#fdcd80}</style><path class="st0" d="M163.3 100v36.4c9.4 1.5 15.7 10.4 14.2 19.8-1 6.2-5.4 11.4-11.3 13.5.8 1.3 1.5 2.6 2.2 3.9 4.4 9.3 6.6 19.5 6.4 29.8-.1 10.6-1.7 21-4.6 31.2h11.2c3.2.1 6.4-.5 9.4-1.6 3.9-1.5 7-4.5 8.6-8.4 1.2-3.1 1.8-6.4 1.8-9.7v-67.5c0-4.8 2.3-9.3 6.3-12.1-3 2.7-4.6 6.6-4.6 10.6 0 9.1 7.3 16.5 16.4 16.6h.5c10.6-.1 19.1-8.7 19.1-19.3 0-12.5-10.2-22.6-22.7-22.6-14.8 0-26.8 12-26.8 26.8V181c-1.8-2.5-4.6-4.2-7.6-4.6.8-1.6 1.3-3.5 1.3-5.3v-58.5c-6.5-3.3-12.6-7.1-18.4-11.6l-1.4-1zM138 203.3c.1-4.4-.7-8.9-2.4-13-.9-2.1-2.4-4-4.1-5.5-1.6-1.4-3.5-2.4-5.6-3h-2.1c-7.8.1-15.6-1.1-23-3.5l-.2-.1c-4.2-1.5-8.2-3.5-11.8-6.1-7-5-12.1-12.3-14.4-20.6-.8-2.7-1.2-5.5-1.2-8.3 0-10.2 8.2-18.4 18.4-18.4h.4V100c-6.6 5.2-13.7 9.7-21.2 13.4l-1.2.5v56.9c0 1.8.4 3.7 1.3 5.3-3 .5-5.8 2.2-7.6 4.6v-33.5c0-14.8-12-26.8-26.8-26.8-12.5 0-22.6 10.1-22.6 22.6 0 10.4 8.3 19 18.7 19.2-.4 0-.4 0 0 0h.4c9.2 0 16.6-7.4 16.6-16.6 0-4-1.7-7.9-4.6-10.6 3.9 2.8 6.3 7.3 6.3 12.1v67.4c-.2 4.6 1 9.2 3.6 13 1.7 2.2 4 4 6.7 5 3 1.1 6.2 1.7 9.4 1.6h60.7c5.1-14.5 6.3-24.7 6.3-30.8z"/><path class="st1" d="M187.3 237.9h-13.1l3.5 32.1h6.1zM74.6 270l3.5-32.1H65l3.5 32.1z"/><path class="st2" d="M93.8 128.5c-8.1-1.2-15.7 4.4-16.9 12.5-1.2 8.1 4.4 15.7 12.5 16.9l68.9 10.3c.7.1 1.5.2 2.2.2 8.2.1 14.9-6.5 14.9-14.7.1-7.4-5.4-13.8-12.8-14.8l-68.8-10.4z"/><path class="st2" d="M158 170.6l-68.9-10.3c-3.6-.5-6.9-2.2-9.5-4.7 2.5 5.5 6.4 10.3 11.3 13.8 3.3 2.4 7 4.3 10.9 5.6h.2c7 2.3 14.4 3.5 21.8 3.3h2.6c2.7.8 5.2 2.1 7.4 3.9 2.2 1.9 3.9 4.2 5.1 6.8 1.9 4.6 2.8 9.5 2.7 14.4 0 9.4-2.5 23.1-10.2 41.9-3.1 7.6.5 16.3 8.1 19.4 7.6 3.1 16.3-.5 19.4-8.1 8.7-21.3 12.4-38.6 12.4-53.1.2-9.7-1.9-19.4-6-28.2-.8-1.6-1.7-3.1-2.6-4.6-.7.1-1.4.1-2.1.1-.9 0-1.7-.1-2.6-.2zM19.4 116.5h5c5 0 13-.1 21.2-.9 4.1-.4 8.2-1 12.2-1.8 3.9-.7 7.7-1.9 11.3-3.5 9.6-4.6 18.5-10.7 26.4-17.9v34l64.3 9.6V92.3c1.8 1.6 4 3.6 6.9 5.8 6.1 4.7 12.6 8.7 19.5 12.1 3.6 1.7 7.4 2.9 11.3 3.5 11 1.9 22.2 2.8 33.4 2.6h5c5.3 0 9.5-4.2 9.6-9.4 0-5.3-4.2-9.5-9.4-9.6H231c-4.6 0-12.1-.1-19.4-.8-3.4-.3-6.8-.8-10.2-1.4-2.2-.4-4.4-1.1-6.5-2-8.7-4.2-16.7-9.7-23.6-16.4-2.7-2.7-5.9-4.9-9.3-6.6-4.3-1.9-9-2.9-13.8-2.7-.5 0-1 .1-1.5.3H109c-.5-.1-1-.1-1.5-.1-4.7-.2-9.4.7-13.7 2.7-2.6 1.3-5.1 3-7.3 4.9-3 2.6-5.5 5.1-9.2 8-5.1 3.9-10.6 7.3-16.3 10.1-2.1.9-4.3 1.6-6.5 2-9.1 1.9-22.8 2.3-29.6 2.2H20c-5.2-.3-9.7 3.7-10.1 8.9-.3 5.2 3.7 9.7 8.9 10.1h.6zM154.8 28.3c3.5 15-5.8 30-20.9 33.5-15 3.5-30-5.8-33.5-20.9-3.5-15 5.8-30 20.8-33.5 15.1-3.5 30.1 5.8 33.6 20.9z"/><defs><path id="SVGID_1_" d="M217.7 161.2h3v3h-3z"/></defs><clipPath id="SVGID_00000130625708627501795260000004376959214354886574_"><use xlink:href="#SVGID_1_" overflow="visible"/></clipPath><path d="M219.3 162.2c-.2.1-.4.1-.5 0 0 .5.3 1 .5 1s.3 0 .5-1c-.2.1-.4.1-.5 0z" clip-path="url(#SVGID_00000130625708627501795260000004376959214354886574_)" fill="#3c7e79"/><defs><path id="SVGID_00000003079198378719400150000015669875958243851447_" d="M31.1 161.2h3v3h-3z"/></defs><clipPath id="SVGID_00000040559239585991740550000002485830145789379220_"><use xlink:href="#SVGID_00000003079198378719400150000015669875958243851447_" overflow="visible"/></clipPath><path d="M32.6 163v-.8h-.5s.7.8 1 1l-.5-.2z" clip-path="url(#SVGID_00000040559239585991740550000002485830145789379220_)" fill="#3c7e79"/><circle class="st5" cx="218.7" cy="144.8" r="13.3"/><circle class="st5" cx="34.1" cy="144.8" r="13.3"/></svg>